<svg t="1765442009865" class="icon" viewBox="0 0 1024 1024" version="1.1" xmlns="http://www.w3.org/2000/svg" p-id="15131" width="128" height="128"><path d="M941 469.9c-43.9-197.4-105.9-246.1-143.6-265.6C737 173 666.9 191.2 643.7 203c-26.4 13.3-44.2 38.7-71 49.7-31 12.7-73.2 16.1-104.9 0.8-25.3-12.2-47.6-38.3-78.2-49.9-38.8-14.7-103.5-35.2-167.4 9.7C207 224 99.1 312.6 66.8 589.6c-20 170.8 75.5 225.7 72 223.2 24.6 17.3 79.6 46.4 154.2 0.7 49.8-30.5 90.3-90.9 90.3-90.9s18-33.6 42-47.8c16.9-10.1 42.3-2.4 42.3-2.4h89.7s28.5-3.5 48.4 5.1c19.4 8.3 30.4 28.8 30.4 28.8s59.1 74.9 115.7 113c24.1 16.2 121 34.9 171.1-25 32.5-39.1 54.8-159.6 18.1-324.4z m-479-17.5c0 15-12.2 27.1-27.2 27.1h-67.9v68c0 15-12.2 27.2-27.2 27.2h-20.4c-15 0-27.2-12.1-27.2-27.2v-68h-67.9c-15 0-27.2-12.1-27.2-27.1V432c0-15 12.2-27.2 27.2-27.2h67.9v-67.9c0-15 12.2-27.2 27.2-27.2h20.4c15 0 27.2 12.2 27.2 27.2v67.9h67.9c15 0 27.2 12.1 27.2 27.2v20.4z m191.4 95.1c-28.1 0-50.9-22.8-50.9-51 0-28.1 22.8-50.9 50.9-50.9 28.1 0 50.9 22.8 50.9 50.9 0 28.2-22.8 51-50.9 51z m93.4-113.2c-27.8 0-50.4-22.6-50.4-50.4s22.6-50.3 50.4-50.3c27.8 0 50.4 22.6 50.4 50.3-0.1 27.8-22.6 50.4-50.4 50.4z" fill="#040000" p-id="15132"></path></svg>