<svg t="1770951432986" class="icon" viewBox="0 0 1024 1024" version="1.1" xmlns="http://www.w3.org/2000/svg" p-id="7170" width="200" height="200"><path d="M209.408 685.888a8.512 8.512 0 0 1 4.48 4.416l16.64 38.4a8.512 8.512 0 0 0 4.48 4.48l38.4 16.64a8.512 8.512 0 0 1 0 15.68l-38.4 16.64a8.512 8.512 0 0 0-4.48 4.48l-16.64 38.4a8.512 8.512 0 0 1-15.68 0l-16.704-38.4a8.512 8.512 0 0 0-4.48-4.48l-38.4-16.64a8.512 8.512 0 0 1 0-15.68l38.4-16.64a8.512 8.512 0 0 0 4.48-4.48l16.64-38.4a8.512 8.512 0 0 1 11.264-4.416z m319.552-447.36c9.984 4.352 17.92 12.224 22.208 22.144l57.6 132.48c4.288 9.92 12.16 17.792 22.08 22.144l132.48 57.6a42.688 42.688 0 0 1 0 78.208l-132.48 57.6a42.688 42.688 0 0 0-22.144 22.144l-57.6 132.48a42.688 42.688 0 0 1-78.208 0l-57.6-132.48a42.688 42.688 0 0 0-22.144-22.144l-132.48-57.6a42.688 42.688 0 0 1 0-78.208l132.48-57.6a42.688 42.688 0 0 0 22.144-22.144l57.6-132.48a42.688 42.688 0 0 1 56.128-22.144z m292.864-113.536c1.984 0.832 3.584 2.432 4.416 4.416l23.168 53.248a8.512 8.512 0 0 0 4.48 4.48l53.184 23.04a8.512 8.512 0 0 1 0 15.68l-53.248 23.168a8.512 8.512 0 0 0-4.416 4.48l-23.168 53.248a8.512 8.512 0 0 1-15.616 0l-23.168-53.248a8.512 8.512 0 0 0-4.48-4.48l-53.184-23.168a8.512 8.512 0 0 1 0-15.616l53.248-23.168a8.512 8.512 0 0 0 4.416-4.416l23.168-53.248a8.512 8.512 0 0 1 11.2-4.48z" p-id="7171"></path></svg>