<svg t="1770980070422" class="icon" viewBox="0 0 1024 1024" version="1.1" xmlns="http://www.w3.org/2000/svg" p-id="8378" width="200" height="200"><path d="M766.492701 468.808534c-44.584739 68.326113-124.725808 106.780451-218.35376 119.598563 4.458474 25.636225 0 63.979101 22.292369 102.433439 44.584739 81.144226 80.252531 170.871013 93.516491 234.961576 75.794057 29.871775 231.729183-42.689888 276.20246-136.652226 49.043213-102.5449 0-205.089801-80.141069-213.560902s-124.725808 34.107326-115.80886 81.144226 53.390225 46.925438 102.433438 17.053663 93.516491 34.218787 40.126266 59.855012-133.754218 46.925438-178.338958-4.347012c-49.043213-51.27245-44.584739-234.850114 151.476652-217.796451S1047.042174 780.232938 984.735 861.711549C922.316365 955.673887 846.63377 1024 624.490307 1024H267.812392c-89.169479 0-26.750844-179.342114 53.390226-328.812452 22.29237-42.80135 17.833896-76.908675 22.292369-102.544901-97.974965-13.041036-178.338957-51.27245-218.465222-119.598563H67.181065a27.419615 27.419615 0 0 1-22.292369-25.636225 20.620442 20.620442 0 0 1 22.292369-21.400675h35.667792a121.270491 121.270491 0 0 1-8.916948-42.689888H22.596326a21.400675 21.400675 0 1 1 0-42.689888h66.877109a224.372701 224.372701 0 0 1 44.584739-140.999238V28.868619c0-21.400675 17.833896-34.218787 40.126266-25.636225L374.481381 89.169479A427.902035 427.902035 0 0 1 446.15135 84.376619 354.894525 354.894525 0 0 1 513.028458 89.169479L713.659785 3.789703c22.29237-8.582562 40.126265 0 40.126266 25.636225v170.202242a243.989986 243.989986 0 0 1 44.584739 140.999238h66.877109c17.833896 0 26.750844 8.582562 26.750844 21.400675a20.620442 20.620442 0 0 1-22.29237 21.289213h-71.335583c-4.458474 17.165125-4.458474 29.871775-8.916948 42.689888H825.121634a21.400675 21.400675 0 1 1 0 42.80135z" fill="currentColor" p-id="8379"></path></svg>