<svg xmlns="http://www.w3.org/2000/svg" fill="none" height="24" viewBox="0 0 24 24" width="24"><script xmlns=""/><path d="m20.822 12.2069c0-.6118-.0496-1.2269-.1554-1.8287h-8.4888v3.4656h4.8611c-.2017 1.1177-.8498 2.1065-1.7989 2.7348v2.2487h2.9001c1.7031-1.5675 2.6819-3.8823 2.6819-6.6204z" fill="#4285f4"/><path d="m12.1777 21.0001c2.4273 0 4.4742-.797 5.9657-2.1726l-2.9002-2.2487c-.8069.5489-1.8485.8598-3.0622.8598-2.34785 0-4.3386-1.584-5.05289-3.7137h-2.99273v2.3182c1.52778 3.039 4.63956 4.957 8.04232 4.957z" fill="#34a853"/><path d="m7.12487 13.7249c-.37698-1.1177-.37698-2.328 0-3.4458v-2.31809h-2.98943c-1.27645 2.54299-1.27645 5.53909 0 8.08199z" fill="#fbbc04"/><path d="m12.1777 6.56213c1.2831-.01985 2.5232.46296 3.4524 1.34921l2.5695-2.56946c-1.627-1.52778-3.7864-2.36773-6.0219-2.34127-3.40276 0-6.51454 1.91799-8.04232 4.96033l2.98942 2.31816c.71098-2.13297 2.70504-3.71697 5.0529-3.71697z" fill="#ea4335"/><script xmlns=""/></svg>